<?xml version="1.0" encoding="utf-8"?>
<!-- Generator: Adobe Illustrator 16.0.0, SVG Export Plug-In . SVG Version: 6.00 Build 0)  -->
<!DOCTYPE svg PUBLIC "-//W3C//DTD SVG 1.1//EN" "http://www.w3.org/Graphics/SVG/1.1/DTD/svg11.dtd">
<svg version="1.1" id="Layer_1" xmlns="http://www.w3.org/2000/svg" xmlns:xlink="http://www.w3.org/1999/xlink" x="0px" y="0px"
	 width="348.096px" height="390.573px" viewBox="0 0 348.096 390.573" enable-background="new 0 0 348.096 390.573"
	 xml:space="preserve">
<g>
	<path fill-rule="evenodd" clip-rule="evenodd" fill="#B5D99F" d="M87.996,341.918c-10.653-4.74-20.431-11.096-30.624-16.682
		c-17.935-9.83-35.666-20.031-53.507-30.033c-2.066-1.158-3.881-2-3.865-5.047c0.167-31.465,0.176-62.93,0.229-94.396
		c0.811-0.528,1.53-0.477,2.134,0.331c0.204,24.944,0.027,49.893,0.084,74.84c0.01,4.492-0.038,8.984,0.012,13.477
		c0.055,4.893,0.407,5.129,4.638,2.768c12.347-6.889,24.68-13.803,37.012-20.718c13.781-7.728,27.471-15.619,41.343-23.188
		c0.775-0.257,1.564-0.303,2.362-0.144c8.646,4.235,16.741,9.481,25.27,13.944c1.884,0.986,3.826,2.07,4.791,4.186
		c0.267,4.219,2.615,5.646,6.641,5.208c1.958-0.214,3.98-0.142,5.93,0.402c13.161,7.171,26.048,14.833,39.236,21.958
		c1.59,0.859,3.255,1.764,3.891,3.688c0.064,0.509-0.016,0.996-0.229,1.461c-5.376,4.53-11.857,7.24-17.895,10.655
		c-21.081,11.921-42.153,23.858-63.367,35.542C90.785,340.885,89.548,341.781,87.996,341.918z"/>
	<path fill-rule="evenodd" clip-rule="evenodd" fill="#3AB59A" d="M259.084,47.714c24.388,13.635,48.778,27.261,73.158,40.911
		c4.935,2.763,9.821,5.613,14.729,8.423c-1.106,4.372-5.361,5.134-8.459,6.933c-15.531,9.014-31.357,17.506-46.93,26.462
		c-9.623,5.535-19.174,11.327-29.315,15.972c-0.74,0.187-1.482,0.193-2.228,0.035c-12.734-6.189-24.773-13.653-37.133-20.528
		c-15.71-8.74-31.469-17.402-46.983-26.495c-0.78-0.659-1.325-1.446-1.359-2.507c1.868-2.91,5.202-4.029,7.911-5.528
		c18.047-9.985,35.965-20.199,53.869-30.431C243.954,56.61,251.772,52.586,259.084,47.714z"/>
	<path fill-rule="evenodd" clip-rule="evenodd" fill="#A5D49C" d="M347.761,292.666c-7.592,5.382-15.957,9.443-24.034,13.991
		c-20.878,11.757-41.821,23.396-62.739,35.083c-6.592-1.05-11.607-5.415-17.195-8.46c-21.408-11.662-42.449-23.988-63.83-35.703
		c-2.123-1.162-4.666-1.971-5.383-4.775c0.267-1.906,1.783-2.779,3.206-3.578c11.61-6.529,23.173-13.145,34.837-19.576
		c0.73-0.402,1.524-0.668,2.351-0.836c5.642-0.145,11.041,1.926,16.749,1.631c3.601-0.185,5.123-1.396,4.943-5.027
		c-0.13-2.627-0.279-5.302,0.462-7.898c0.751-2.029,2.487-3.107,4.219-4.063c5.239-2.893,10.44-5.854,15.675-8.754
		c1.504-0.832,3.09-1.197,4.801-0.939c8.397,2.918,15.594,8.131,23.303,12.355c19.098,10.464,37.951,21.365,57.024,31.876
		C344.306,289.18,346.74,290.089,347.761,292.666z"/>
	<path fill-rule="evenodd" clip-rule="evenodd" fill="#46BB9B" d="M1.168,97.01c29.3-16.398,58.6-32.797,87.899-49.195
		c7.402,5.072,15.5,8.93,23.286,13.332c19.52,11.038,39.266,21.671,58.683,32.892c1.156,0.668,2.368,1.285,2.553,2.835
		c-0.052,1.099-0.61,1.918-1.412,2.61c-9.926,5.988-20.155,11.445-30.229,17.178c-2.252,1.282-4.715,1.383-7.22,1.444
		c-5.292,0.129-10.595-0.365-15.86,0.31c-0.364,0.293-0.713,0.599-1.009,0.959c-0.339,0.603-0.577,1.276-0.46,1.921
		c1.395,7.722-3.01,11.516-9.289,14.433c-6.788,3.154-12.986,7.456-19.768,10.663c-0.744,0.204-1.494,0.221-2.248,0.07
		c-11.886-5.93-23.253-12.809-34.836-19.294c-16.368-9.165-32.745-18.315-49.065-27.573C1.367,98.926,0.851,98.131,1.168,97.01z"/>
	<path fill-rule="evenodd" clip-rule="evenodd" fill="#7DC89C" d="M86.066,145.754c0.664,0.015,1.328,0.03,1.992,0.045
		c9.758,4.393,18.861,9.981,28.059,15.395c1.171,0.69,1.831,1.866,2.14,3.219c0.646,20.228,0.62,40.447,0.044,60.66
		c-0.345,1.723-1.366,3.033-2.835,3.887c-8.983,5.221-17.708,10.922-27.405,14.823c-0.665-0.008-1.33-0.015-1.995-0.022
		c-1.793,0.103-3.126-0.973-4.569-1.774c-25.124-13.963-50.115-28.162-75.2-42.194c-1.752-0.98-3.55-1.875-4.295-3.938
		c-0.591-0.031-1.182-0.063-1.772-0.094c-0.05-31.9-0.102-63.801-0.139-95.702c-0.001-1.116-0.274-2.386,1.078-3.049
		c0.313,0.586,0.626,1.172,0.94,1.759c0.528,1.791,0.347,3.628,0.347,5.452c-0.007,26.935,0,53.87-0.002,80.805
		c0,0.665-0.019,1.331,0.006,1.995c0.162,4.248,0.488,4.5,4.184,2.504c10.093-5.451,20.01-11.217,30.028-16.802
		c14.81-8.255,29.606-16.533,44.342-24.92C82.6,146.898,84.207,146.004,86.066,145.754z"/>
	<path fill-rule="evenodd" clip-rule="evenodd" fill="#CDE2A0" d="M175.062,292.786c10.094,7.006,21.21,12.243,31.82,18.354
		c17.956,10.338,36.063,20.414,54.106,30.601c-11.639,6.666-23.249,13.382-34.923,19.986c-16.023,9.067-32.093,18.058-48.155,27.058
		c-0.854,0.479-1.831,0.743-2.749,1.107c-3.277-0.998-2.604-3.848-2.653-6.135c-0.175-7.959-0.065-15.924-0.069-23.886
		c-0.009-20.071,0.009-40.144-0.012-60.216c-0.002-1.99-0.099-3.987,0.611-5.902c0.009-0.332,0.017-0.662,0.023-0.994
		C173.736,292.172,174.403,292.173,175.062,292.786z"/>
	<path fill-rule="evenodd" clip-rule="evenodd" fill="#7FC89C" d="M347.761,292.666c-28.56-15.97-57.119-31.938-85.679-47.907
		c-0.345-0.373-0.528-0.811-0.526-1.322c0.406-1.848,1.923-2.617,3.373-3.436c26.383-14.873,52.858-29.579,79.188-44.547
		c0.724-0.412,1.486-0.749,2.299-0.963c0.504-0.099,0.977-0.007,1.421,0.243C348.121,227.377,348.268,260.022,347.761,292.666z"/>
	<path fill-rule="evenodd" clip-rule="evenodd" fill="#DDE7A1" d="M173.038,293.752c1.74,1.637,0.986,3.764,0.989,5.668
		c0.049,28.277,0.02,56.554,0.067,84.831c0.003,1.901-0.744,4.04,1.066,5.64c-1.59,1.574-2.825,0.016-3.967-0.625
		c-24.525-13.752-49.049-27.508-73.475-41.436c-3.28-1.869-7.142-2.869-9.721-5.912c5.742-5.122,12.896-7.947,19.446-11.713
		c21.126-12.148,42.459-23.938,63.724-35.846C171.728,294.045,172.411,293.95,173.038,293.752z"/>
	<path fill-rule="evenodd" clip-rule="evenodd" fill="#47BB9B" d="M347.836,194.734l-0.381-0.013h-0.381
		c-4.553-0.334-7.887-3.405-11.584-5.466c-23.359-13.02-46.681-26.11-69.914-39.354c-1.617-0.921-3.888-1.443-3.517-4.127
		c8.953-5.454,18.163-10.433,27.377-15.434c8.653-4.696,16.975-10.037,25.68-14.697c7.39-3.956,14.607-8.229,21.921-12.326
		c3.423-1.918,6.96-3.645,9.935-6.269c1.137,0.532,1.043,1.583,1.041,2.561C347.96,131.317,347.897,163.025,347.836,194.734z"/>
	<path fill-rule="evenodd" clip-rule="evenodd" fill="#2EB199" d="M259.084,47.714c-2.966,5.292-8.927,6.3-13.501,9.235
		c-7.975,5.117-16.137,10.015-24.574,14.308c-7.037,3.581-13.777,7.703-20.744,11.392c-4.01,2.124-8.087,4.688-12.08,6.996
		c-4.275,2.469-8.058,6.08-13.123,7.144c-0.744,0.319-1.234,0.092-1.473-0.681c-0.992-1.81-1.141-3.784-1.143-5.792
		c-0.025-27.699-0.053-55.398,0.054-83.098c0.009-2.396-0.811-5.469,2.729-6.534c20.471,11.38,40.959,22.731,61.406,34.154
		C244.166,39.044,251.604,43.417,259.084,47.714z"/>
	<path fill-rule="evenodd" clip-rule="evenodd" fill="#3FB69A" d="M175.229,0.684c-1.791,1.382-1.14,3.363-1.142,5.108
		c-0.031,30.321-0.016,60.642-0.011,90.963c-0.331,0.328-0.67,0.336-1.016,0.023c-8.944-5.131-17.853-10.328-26.842-15.378
		c-12.379-6.955-24.826-13.791-37.231-20.697c-5.869-3.268-11.618-6.77-17.625-9.753c-1.65-0.82-2.393-1.441-2.294-3.135
		c19.895-11.286,39.784-22.583,59.688-33.852c7.36-4.167,14.734-8.313,22.16-12.363C172.181,0.911,173.381-1.019,175.229,0.684z"/>
	<path fill-rule="evenodd" clip-rule="evenodd" fill="#FEFEFE" d="M116.888,226.81c0.001-21.362,0.003-42.724,0.004-64.085
		c-0.628-1.359-1.288-2.703-1.35-4.249c-0.549-13.601,0.124-27.153,1.564-40.677l-0.033,0.038c0.417-0.265,0.821-0.512,1.357-0.518
		c23.563-0.277,47.125-1.901,70.682-0.89c23.973,1.029,44.348,14.949,47.224,42.383c0.283,7.497-0.069,14.927-2.44,22.144
		c-3.842,11.7-11.339,20.493-21.502,27.194c-2.169,1.431-4.93,2.5-4.132,5.995c1.745,11.305,9.819,18.996,22.153,21.089
		c8.896,1.509,9.09,1.647,8.988,10.858c-0.039,3.59,0.865,7.354-1.338,10.693c-0.044,3.81-0.222,7.623-0.089,11.426
		c0.099,2.788-0.93,3.665-3.726,3.781c-6.862,0.283-13.469-1.27-20.16-2.246c-8.756-0.252-15.843-4.776-22.589-9.526
		c-12.979-9.138-21.676-21.388-24.96-37.163c-0.402-1.933-0.688-3.992-3.134-4.621c-3.175-0.816-4.846,0.678-4.889,4.842
		c-0.104,10.141-0.02,20.283-0.042,30.425c-0.008,3.49,0.118,6.983-0.108,10.471c-0.15,2.315-0.829,4.593-3.514,4.677
		c-7.924,0.248-15.909,1.486-23.738-0.906c-2.14-0.046-4.28-0.127-6.42-0.133c-7.4-0.017-7.4-0.007-7.768-7.09
		c-1.128-1.924-1.472-4.018-1.472-6.224c0.001-7.148,0.007-14.296-0.003-21.444C115.452,230.843,115.848,228.762,116.888,226.81z"/>
	<path fill-rule="evenodd" clip-rule="evenodd" fill="#A3D39C" d="M2.001,195.854c17.733,9.996,35.538,19.868,53.171,30.036
		c10.305,5.942,21.177,10.91,30.893,17.87c-8.331,6.378-17.932,10.625-26.938,15.854c-18.068,10.486-36.501,20.341-54.69,30.621
		c-2.678,1.514-3.399,1.32-3.396-1.75c0.034-29.604,0.009-59.205,0.06-88.809C1.103,198.402,1.688,197.128,2.001,195.854z"/>
	<path fill-rule="evenodd" clip-rule="evenodd" fill="#90CD9D" d="M131.117,267.944c7.151-0.045,14.307-0.266,21.45-0.059
		c3.475,0.1,4.573-0.959,4.532-4.474c-0.165-13.971-0.079-27.944,0.004-41.917c0.011-1.908-0.962-4.969,2.666-4.542
		c2.764,0.325,6.633-2.261,7.707,3.341c4.917,25.634,21.199,40.877,45.372,48.672c0.452,0.145,0.832,0.516,1.244,0.781
		c-10.559,7.029-21.992,12.543-32.91,18.953c-2.128,1.249-4.352,2.313-6.119,4.086c-0.667-0.009-1.333-0.018-2-0.027
		c-9.932-6.803-20.874-11.863-31.143-18.078C138.291,272.485,134.147,271.098,131.117,267.944z"/>
	<path fill-rule="evenodd" clip-rule="evenodd" fill="#90CD9D" d="M116.888,226.81c0.014,11.304,0.028,22.608,0.042,33.911
		c-8.934-4.971-17.876-9.924-26.783-14.939c-0.813-0.459-1.396-1.323-2.086-1.999c2.913-3.622,7.525-4.547,11.216-6.957
		C104.92,233.14,110.996,230.116,116.888,226.81z"/>
	<path fill-rule="evenodd" clip-rule="evenodd" fill="#6EC49B" d="M207.022,213.79c-1.07-2.092-0.869-3.594,1.461-4.876
		c19.379-10.657,27.451-27.512,26.689-49.137c7.852-5.463,16.189-10.06,24.891-14.013c0.666,0.004,1.331,0.008,1.996,0.011
		c5.051,4.639,11.404,7.196,17.238,10.53c22.273,12.728,44.714,25.163,67.086,37.719c0.274,0.154,0.462,0.463,0.69,0.699
		c-9.95,6.883-20.841,12.153-31.313,18.134c-17.256,9.854-34.683,19.41-52.016,29.129c-0.678,0.381-1.135,1.156-1.695,1.746
		c-2.25,0.957-4.142-0.16-5.95-1.184c-15.113-8.552-30.286-16.998-45.411-25.531C209.213,216.183,207.917,215.239,207.022,213.79z"
		/>
	<path fill-rule="evenodd" clip-rule="evenodd" fill="#57BF9C" d="M260.063,145.763c-7.691,5.745-16.123,10.178-24.891,14.013
		c-2.068-16.363-9.158-29.388-24.613-36.761c-6.676-3.185-13.791-5.095-21.156-5.145c-24.109-0.166-48.22-0.045-72.33-0.034
		c3.162-2.178,6.817-1.322,10.046-0.919c9.334,1.164,16.929-2.483,24.541-7.104c6.592-4.002,13.161-8.138,20.376-11.028
		c1.355-0.927,2.711-0.917,4.068-0.005c7.262,2.513,13.408,7.128,20.066,10.767c15.396,8.416,30.639,17.116,45.912,25.755
		C248.118,138.715,254.073,142.272,260.063,145.763z"/>
	<path fill-rule="evenodd" clip-rule="evenodd" fill="#64C0A4" d="M176.104,98.779c-1.355,0.002-2.711,0.003-4.067,0.005
		c0.341-0.668,0.682-1.337,1.023-2.005c0.338-0.008,0.677-0.015,1.016-0.023c0.328,0.025,0.656,0.036,0.985,0.032
		C175.409,97.452,175.757,98.116,176.104,98.779z"/>
	<path fill-rule="evenodd" clip-rule="evenodd" fill="#90CD9D" d="M207.022,213.79c16.371,9.148,32.736,18.309,49.121,27.432
		c1.869,1.041,3.644,2.37,5.906,2.512c0.01,0.342,0.021,0.684,0.031,1.025c-4.346-0.369-7.229,2.846-10.701,4.523
		c-4.578,2.213-8.889,4.978-13.314,7.504c-0.049-4.465-0.457-8.964-0.053-13.389c0.436-4.774-1.514-6.156-5.988-6.638
		c-10.672-1.147-19.162-5.917-23.706-16.235C207.37,218.372,206.749,216.17,207.022,213.79z"/>
	<path fill-rule="evenodd" clip-rule="evenodd" fill="#6BC39B" d="M86.066,145.754c-4.895,4.613-11.146,7.072-16.851,10.341
		c-21.331,12.227-42.844,24.133-64.272,36.189c-2.318,1.304-3.92,1.981-3.912-1.866c0.063-29.663,0.037-59.325,0.038-88.988
		c0-1.025,0.118-1.999,1.04-2.662c7.804,2.903,14.639,7.652,21.865,11.634c17.832,9.826,35.509,19.933,53.228,29.963
		C80.208,142.068,83.113,143.953,86.066,145.754z"/>
	<path fill-rule="evenodd" clip-rule="evenodd" fill="#57BF9C" d="M117.106,117.799c-0.071,14.975-0.143,29.951-0.214,44.926
		c-9.065-5.045-18.139-10.076-27.181-15.164c-0.67-0.377-1.108-1.165-1.654-1.762c7.348-5.414,15.69-9.142,23.599-13.576
		c3.762-2.109,4.669-4.497,4.481-8.301C116.039,121.898,115.223,119.579,117.106,117.799z"/>
	<path fill-rule="evenodd" clip-rule="evenodd" fill="#56BF9C" d="M157.026,169.928c0-4.316,0.117-8.637-0.044-12.946
		c-0.097-2.593,0.829-3.528,3.422-3.456c6.291,0.176,12.582-0.91,18.882,0.023c1.477,0.219,2.928,0.313,4.318,1.008
		c6.029,3.016,8.982,10.94,7.409,20.09c-1.165,6.772-6.359,11.749-13.229,12.122c-5.794,0.314-11.617,0.063-17.424,0.204
		c-2.656,0.064-3.443-1.107-3.37-3.6C157.121,178.895,157.027,174.41,157.026,169.928z"/>
</g>
</svg>
